<?xml version="1.0" encoding="utf-8"?>
<!-- Generator: Adobe Illustrator 24.1.2, SVG Export Plug-In . SVG Version: 6.00 Build 0)  -->
<svg version="1.1" id="Layer_1" xmlns:ev="http://www.w3.org/2001/xml-events"
	 xmlns="http://www.w3.org/2000/svg" xmlns:xlink="http://www.w3.org/1999/xlink" x="0px" y="0px" viewBox="0 0 232 232"
	 style="enable-background:new 0 0 232 232;" xml:space="preserve">
<style type="text/css">
	.st0{fill:#2955F4;}
</style>
<g>
	<path class="st0" d="M40.9,85.1h8.8h8.8h8.8h8.8h8.8v-8.8v-8.8v-8.8v-8.8v-8.8V32v-8.8h-8.8h-8.8h-8.8h-8.8h-8.8H32h-8.8V32v8.8
		v8.8v8.8v8.8v8.8v8.8H32H40.9z M32,67.4v-8.8v-8.8v-8.8V32h8.8h8.8h8.8h8.8h8.8v8.8v8.8v8.8v8.8v8.8h-8.8h-8.8h-8.8h-8.8H32V67.4z"
		/>
	<polygon class="st0" points="32,93.9 23.2,93.9 23.2,102.7 32,102.7 40.9,102.7 40.9,93.9 	"/>
	<polygon class="st0" points="40.9,138.1 40.9,129.3 40.9,120.4 32,120.4 32,129.3 23.2,129.3 23.2,138.1 32,138.1 	"/>
	<polygon class="st0" points="58.5,67.4 67.4,67.4 67.4,58.5 67.4,49.7 67.4,40.9 58.5,40.9 49.7,40.9 40.9,40.9 40.9,49.7 
		40.9,58.5 40.9,67.4 49.7,67.4 	"/>
	<polygon class="st0" points="58.5,120.4 58.5,129.3 67.4,129.3 67.4,120.4 67.4,111.6 67.4,102.7 76.2,102.7 85.1,102.7 85.1,93.9 
		76.2,93.9 67.4,93.9 58.5,93.9 58.5,102.7 58.5,111.6 49.7,111.6 49.7,102.7 40.9,102.7 40.9,111.6 40.9,120.4 49.7,120.4 	"/>
	<polygon class="st0" points="49.7,164.6 40.9,164.6 40.9,173.5 40.9,182.3 40.9,191.1 49.7,191.1 58.5,191.1 67.4,191.1 
		67.4,182.3 67.4,173.5 67.4,164.6 58.5,164.6 	"/>
	<path class="st0" d="M67.4,146.9h-8.8h-8.8h-8.8H32h-8.8v8.8v8.8v8.8v8.8v8.8v8.8v8.8H32h8.8h8.8h8.8h8.8h8.8h8.8V200v-8.8v-8.8
		v-8.8v-8.8v-8.8v-8.8h-8.8H67.4z M76.2,164.6v8.8v8.8v8.8v8.8h-8.8h-8.8h-8.8h-8.8H32v-8.8v-8.8v-8.8v-8.8v-8.8h8.8h8.8h8.8h8.8
		h8.8V164.6z"/>
	<polygon class="st0" points="102.7,76.2 102.7,67.4 93.9,67.4 93.9,76.2 93.9,85.1 102.7,85.1 	"/>
	<polygon class="st0" points="93.9,146.9 102.7,146.9 102.7,155.8 93.9,155.8 93.9,164.6 93.9,173.5 102.7,173.5 102.7,164.6 
		111.6,164.6 111.6,155.8 120.4,155.8 129.3,155.8 129.3,146.9 138.1,146.9 138.1,138.1 129.3,138.1 129.3,129.3 138.1,129.3 
		138.1,120.4 146.9,120.4 146.9,111.6 155.8,111.6 155.8,102.7 146.9,102.7 138.1,102.7 138.1,93.9 129.3,93.9 129.3,102.7 
		129.3,111.6 129.3,120.4 120.4,120.4 120.4,129.3 120.4,138.1 111.6,138.1 102.7,138.1 102.7,129.3 102.7,120.4 111.6,120.4 
		111.6,111.6 120.4,111.6 120.4,102.7 111.6,102.7 102.7,102.7 102.7,111.6 93.9,111.6 85.1,111.6 76.2,111.6 76.2,120.4 
		85.1,120.4 93.9,120.4 93.9,129.3 85.1,129.3 76.2,129.3 76.2,138.1 85.1,138.1 93.9,138.1 	"/>
	<polygon class="st0" points="102.7,173.5 102.7,182.3 111.6,182.3 120.4,182.3 120.4,173.5 120.4,164.6 111.6,164.6 111.6,173.5 	
		"/>
	<path class="st0" d="M111.6,76.2v8.8h8.8v-8.8v-8.8h8.8v8.8v8.8h8.8v-8.8v-8.8v-8.8v-8.8v-8.8h-8.8V32h-8.8v8.8h-8.8V32h-8.8v-8.8
		h-8.8V32v8.8v8.8v8.8h8.8v-8.8h8.8v8.8h-8.8v8.8h8.8V76.2z M120.4,49.7h8.8v8.8h-8.8V49.7z"/>
	<rect x="129.3" y="23.2" class="st0" width="8.8" height="8.8"/>
	<rect x="155.8" y="93.9" class="st0" width="8.8" height="8.8"/>
	<polygon class="st0" points="164.6,191.1 155.8,191.1 155.8,200 146.9,200 146.9,208.8 155.8,208.8 164.6,208.8 173.5,208.8 
		173.5,200 164.6,200 	"/>
	<polygon class="st0" points="173.5,40.9 164.6,40.9 164.6,49.7 164.6,58.5 164.6,67.4 173.5,67.4 182.3,67.4 191.1,67.4 
		191.1,58.5 191.1,49.7 191.1,40.9 182.3,40.9 	"/>
	<rect x="173.5" y="191.1" class="st0" width="8.8" height="8.8"/>
	<rect x="182.3" y="200" class="st0" width="8.8" height="8.8"/>
	<polygon class="st0" points="191.1,93.9 182.3,93.9 173.5,93.9 173.5,102.7 173.5,111.6 182.3,111.6 182.3,102.7 191.1,102.7 
		191.1,111.6 182.3,111.6 182.3,120.4 191.1,120.4 191.1,129.3 191.1,138.1 182.3,138.1 173.5,138.1 173.5,146.9 164.6,146.9 
		164.6,138.1 173.5,138.1 173.5,129.3 164.6,129.3 164.6,120.4 155.8,120.4 155.8,129.3 146.9,129.3 146.9,138.1 155.8,138.1 
		155.8,146.9 146.9,146.9 146.9,155.8 138.1,155.8 138.1,164.6 129.3,164.6 129.3,173.5 129.3,182.3 129.3,191.1 120.4,191.1 
		111.6,191.1 102.7,191.1 93.9,191.1 93.9,200 93.9,208.8 102.7,208.8 111.6,208.8 111.6,200 120.4,200 120.4,208.8 129.3,208.8 
		129.3,200 138.1,200 138.1,191.1 146.9,191.1 146.9,182.3 155.8,182.3 155.8,173.5 155.8,164.6 155.8,155.8 164.6,155.8 
		164.6,164.6 173.5,164.6 173.5,155.8 182.3,155.8 182.3,146.9 191.1,146.9 191.1,155.8 200,155.8 200,146.9 200,138.1 208.8,138.1 
		208.8,129.3 208.8,120.4 200,120.4 200,111.6 200,102.7 208.8,102.7 208.8,93.9 200,93.9 	"/>
	<path class="st0" d="M200,23.2h-8.8h-8.8h-8.8h-8.8h-8.8h-8.8V32v8.8v8.8v8.8v8.8v8.8v8.8h8.8h8.8h8.8h8.8h8.8h8.8h8.8v-8.8v-8.8
		v-8.8v-8.8v-8.8V32v-8.8H200z M200,40.9v8.8v8.8v8.8v8.8h-8.8h-8.8h-8.8h-8.8h-8.8v-8.8v-8.8v-8.8v-8.8V32h8.8h8.8h8.8h8.8h8.8
		V40.9z"/>
	<polygon class="st0" points="200,173.5 191.1,173.5 182.3,173.5 173.5,173.5 173.5,182.3 182.3,182.3 191.1,182.3 200,182.3 
		208.8,182.3 208.8,173.5 208.8,164.6 200,164.6 	"/>
	<rect x="200" y="200" class="st0" width="8.8" height="8.8"/>
</g>
</svg>
